<mxfile host="app.diagrams.net" modified="2020-05-20T13:39:10.304Z" agent="5.0 (Macintosh; Intel Mac OS X 10_15_4) AppleWebKit/537.36 (KHTML, like Gecko) Chrome/81.0.4044.138 Safari/537.36" etag="u1iEIOE6w10aUvy-enOu" version="13.1.1" type="github">
  <diagram id="C5RBs43oDa-KdzZeNtuy" name="Page-1">
    <mxGraphModel dx="2404" dy="1956" grid="1" gridSize="10" guides="1" tooltips="1" connect="1" arrows="1" fold="1" page="1" pageScale="1" pageWidth="827" pageHeight="1169" math="0" shadow="0">
      <root>
        <mxCell id="WIyWlLk6GJQsqaUBKTNV-0" />
        <mxCell id="WIyWlLk6GJQsqaUBKTNV-1" parent="WIyWlLk6GJQsqaUBKTNV-0" />
        <mxCell id="WIyWlLk6GJQsqaUBKTNV-2" value="" style="rounded=0;html=1;jettySize=auto;orthogonalLoop=1;fontSize=11;endArrow=none;endFill=0;endSize=8;strokeWidth=1;shadow=0;labelBackgroundColor=none;edgeStyle=orthogonalEdgeStyle;" parent="WIyWlLk6GJQsqaUBKTNV-1" source="WIyWlLk6GJQsqaUBKTNV-3" target="WIyWlLk6GJQsqaUBKTNV-6" edge="1">
          <mxGeometry relative="1" as="geometry" />
        </mxCell>
        <mxCell id="Fh5ID8DqyuNmly4tTI_g-8" value="" style="edgeStyle=orthogonalEdgeStyle;rounded=0;orthogonalLoop=1;jettySize=auto;html=1;entryX=0;entryY=0.5;entryDx=0;entryDy=0;" parent="WIyWlLk6GJQsqaUBKTNV-1" source="WIyWlLk6GJQsqaUBKTNV-3" target="Fh5ID8DqyuNmly4tTI_g-9" edge="1">
          <mxGeometry relative="1" as="geometry">
            <mxPoint x="320" y="110" as="targetPoint" />
          </mxGeometry>
        </mxCell>
        <mxCell id="WIyWlLk6GJQsqaUBKTNV-3" value="&lt;font style=&quot;font-size: 20px&quot;&gt;Choix d&#39;une pizza : &lt;font color=&quot;#99004d&quot;&gt;catalogue&lt;/font&gt;&lt;/font&gt;" style="rounded=1;whiteSpace=wrap;html=1;fontSize=12;glass=0;strokeWidth=1;shadow=0;aspect=fixed;" parent="WIyWlLk6GJQsqaUBKTNV-1" vertex="1">
          <mxGeometry x="138" y="148.41" width="163" height="62.54" as="geometry" />
        </mxCell>
        <mxCell id="WIyWlLk6GJQsqaUBKTNV-4" value="" style="rounded=0;html=1;jettySize=auto;orthogonalLoop=1;fontSize=11;endArrow=classic;endFill=1;endSize=8;strokeWidth=1;shadow=0;labelBackgroundColor=none;edgeStyle=orthogonalEdgeStyle;" parent="WIyWlLk6GJQsqaUBKTNV-1" source="WIyWlLk6GJQsqaUBKTNV-6" target="WIyWlLk6GJQsqaUBKTNV-10" edge="1">
          <mxGeometry y="20" relative="1" as="geometry">
            <mxPoint as="offset" />
          </mxGeometry>
        </mxCell>
        <mxCell id="G-hIVbg5v9CWW5Yy8Wli-1" value="&lt;font style=&quot;font-size: 15px&quot;&gt;Oui&lt;/font&gt;" style="text;html=1;align=center;verticalAlign=middle;resizable=0;points=[];labelBackgroundColor=#ffffff;" parent="WIyWlLk6GJQsqaUBKTNV-4" vertex="1" connectable="0">
          <mxGeometry x="-0.15" y="4" relative="1" as="geometry">
            <mxPoint as="offset" />
          </mxGeometry>
        </mxCell>
        <mxCell id="WIyWlLk6GJQsqaUBKTNV-5" value="&lt;font style=&quot;font-size: 15px&quot;&gt;Non&lt;/font&gt;" style="edgeStyle=orthogonalEdgeStyle;rounded=0;html=1;jettySize=auto;orthogonalLoop=1;fontSize=11;endArrow=classic;endFill=1;endSize=8;strokeWidth=1;shadow=0;labelBackgroundColor=none;" parent="WIyWlLk6GJQsqaUBKTNV-1" source="WIyWlLk6GJQsqaUBKTNV-6" target="WIyWlLk6GJQsqaUBKTNV-7" edge="1">
          <mxGeometry y="10" relative="1" as="geometry">
            <mxPoint as="offset" />
          </mxGeometry>
        </mxCell>
        <mxCell id="WIyWlLk6GJQsqaUBKTNV-6" value="&lt;font style=&quot;font-size: 20px&quot;&gt;&lt;br&gt;&lt;font style=&quot;font-size: 20px&quot;&gt;Commande finie ?&lt;/font&gt;&lt;/font&gt;" style="rhombus;whiteSpace=wrap;html=1;shadow=0;fontFamily=Helvetica;fontSize=12;align=center;strokeWidth=1;spacing=6;spacingTop=-4;aspect=fixed;" parent="WIyWlLk6GJQsqaUBKTNV-1" vertex="1">
          <mxGeometry x="153" y="460" width="134" height="107.2" as="geometry" />
        </mxCell>
        <mxCell id="Fh5ID8DqyuNmly4tTI_g-40" style="edgeStyle=orthogonalEdgeStyle;rounded=0;orthogonalLoop=1;jettySize=auto;html=1;exitX=0.5;exitY=0;exitDx=0;exitDy=0;entryX=0;entryY=0.5;entryDx=0;entryDy=0;" parent="WIyWlLk6GJQsqaUBKTNV-1" source="WIyWlLk6GJQsqaUBKTNV-7" target="WIyWlLk6GJQsqaUBKTNV-3" edge="1">
          <mxGeometry relative="1" as="geometry" />
        </mxCell>
        <mxCell id="WIyWlLk6GJQsqaUBKTNV-7" value="&lt;font style=&quot;font-size: 20px&quot;&gt;Choix d&#39;une autre pizza&lt;/font&gt;" style="rounded=1;whiteSpace=wrap;html=1;fontSize=12;glass=0;strokeWidth=1;shadow=0;aspect=fixed;" parent="WIyWlLk6GJQsqaUBKTNV-1" vertex="1">
          <mxGeometry x="-59" y="489.6" width="143" height="47.59" as="geometry" />
        </mxCell>
        <mxCell id="G-hIVbg5v9CWW5Yy8Wli-6" value="" style="edgeStyle=orthogonalEdgeStyle;rounded=0;orthogonalLoop=1;jettySize=auto;html=1;" parent="WIyWlLk6GJQsqaUBKTNV-1" source="WIyWlLk6GJQsqaUBKTNV-10" target="G-hIVbg5v9CWW5Yy8Wli-2" edge="1">
          <mxGeometry relative="1" as="geometry" />
        </mxCell>
        <mxCell id="MHTNPu9FD_tJbpRzddWY-10" value="" style="edgeStyle=orthogonalEdgeStyle;rounded=0;orthogonalLoop=1;jettySize=auto;html=1;endArrow=classic;endFill=1;" parent="WIyWlLk6GJQsqaUBKTNV-1" source="WIyWlLk6GJQsqaUBKTNV-10" target="G-hIVbg5v9CWW5Yy8Wli-9" edge="1">
          <mxGeometry relative="1" as="geometry" />
        </mxCell>
        <mxCell id="MHTNPu9FD_tJbpRzddWY-14" value="" style="edgeStyle=orthogonalEdgeStyle;rounded=0;orthogonalLoop=1;jettySize=auto;html=1;endArrow=classic;endFill=1;" parent="WIyWlLk6GJQsqaUBKTNV-1" source="WIyWlLk6GJQsqaUBKTNV-10" target="MHTNPu9FD_tJbpRzddWY-13" edge="1">
          <mxGeometry relative="1" as="geometry" />
        </mxCell>
        <mxCell id="MHTNPu9FD_tJbpRzddWY-13" value="&lt;font style=&quot;font-size: 20px&quot;&gt;En ligne&lt;/font&gt;" style="rhombus;whiteSpace=wrap;html=1;shadow=0;fontFamily=Helvetica;fontSize=12;align=center;strokeWidth=1;spacing=6;spacingTop=-4;aspect=fixed;" parent="WIyWlLk6GJQsqaUBKTNV-1" vertex="1">
          <mxGeometry x="371" y="900.0000000000001" width="129" height="103.2" as="geometry" />
        </mxCell>
        <mxCell id="Fh5ID8DqyuNmly4tTI_g-0" value="&lt;font style=&quot;font-size: 20px&quot;&gt;Connexion&lt;/font&gt;" style="rounded=1;whiteSpace=wrap;html=1;fontSize=12;glass=0;strokeWidth=1;shadow=0;" parent="WIyWlLk6GJQsqaUBKTNV-1" vertex="1">
          <mxGeometry x="150" y="-30" width="140" height="50" as="geometry" />
        </mxCell>
        <mxCell id="Fh5ID8DqyuNmly4tTI_g-6" value="" style="rounded=0;html=1;jettySize=auto;orthogonalLoop=1;fontSize=11;endArrow=classic;endFill=1;endSize=8;strokeWidth=1;shadow=0;labelBackgroundColor=none;edgeStyle=orthogonalEdgeStyle;exitX=0.5;exitY=1;exitDx=0;exitDy=0;" parent="WIyWlLk6GJQsqaUBKTNV-1" source="Fh5ID8DqyuNmly4tTI_g-0" target="WIyWlLk6GJQsqaUBKTNV-3" edge="1">
          <mxGeometry y="20" relative="1" as="geometry">
            <mxPoint as="offset" />
            <mxPoint x="260" y="60" as="sourcePoint" />
            <mxPoint x="260" y="100" as="targetPoint" />
          </mxGeometry>
        </mxCell>
        <mxCell id="Fh5ID8DqyuNmly4tTI_g-59" style="edgeStyle=orthogonalEdgeStyle;rounded=0;orthogonalLoop=1;jettySize=auto;html=1;exitX=0.5;exitY=0;exitDx=0;exitDy=0;entryX=0.008;entryY=0.4;entryDx=0;entryDy=0;entryPerimeter=0;startArrow=none;startFill=0;endArrow=classic;endFill=1;" parent="WIyWlLk6GJQsqaUBKTNV-1" source="Fh5ID8DqyuNmly4tTI_g-9" target="Fh5ID8DqyuNmly4tTI_g-49" edge="1">
          <mxGeometry relative="1" as="geometry" />
        </mxCell>
        <mxCell id="uQ-XWgEHN9rOL8nD1H7O-1" value="" style="edgeStyle=orthogonalEdgeStyle;rounded=0;orthogonalLoop=1;jettySize=auto;html=1;startArrow=none;startFill=0;endArrow=classic;endFill=1;entryX=0;entryY=0.5;entryDx=0;entryDy=0;" edge="1" parent="WIyWlLk6GJQsqaUBKTNV-1" source="Fh5ID8DqyuNmly4tTI_g-9" target="MHTNPu9FD_tJbpRzddWY-7">
          <mxGeometry relative="1" as="geometry">
            <mxPoint x="427" y="336.5" as="targetPoint" />
          </mxGeometry>
        </mxCell>
        <mxCell id="Fh5ID8DqyuNmly4tTI_g-9" value="&lt;font style=&quot;font-size: 20px&quot;&gt;Ajout ou retrait d&#39;ingrédient ?&lt;/font&gt;" style="rhombus;whiteSpace=wrap;html=1;shadow=0;fontFamily=Helvetica;fontSize=12;align=center;strokeWidth=1;spacing=6;spacingTop=-4;aspect=fixed;" parent="WIyWlLk6GJQsqaUBKTNV-1" vertex="1">
          <mxGeometry x="334" y="104.17999999999999" width="186" height="152.32" as="geometry" />
        </mxCell>
        <mxCell id="Fh5ID8DqyuNmly4tTI_g-27" style="edgeStyle=orthogonalEdgeStyle;rounded=0;orthogonalLoop=1;jettySize=auto;html=1;exitX=1;exitY=0.5;exitDx=0;exitDy=0;" parent="WIyWlLk6GJQsqaUBKTNV-1" source="Fh5ID8DqyuNmly4tTI_g-49" target="Fh5ID8DqyuNmly4tTI_g-26" edge="1">
          <mxGeometry relative="1" as="geometry">
            <mxPoint x="416" y="40" as="sourcePoint" />
          </mxGeometry>
        </mxCell>
        <mxCell id="uQ-XWgEHN9rOL8nD1H7O-3" value="" style="edgeStyle=orthogonalEdgeStyle;rounded=0;orthogonalLoop=1;jettySize=auto;html=1;startArrow=none;startFill=0;endArrow=classic;endFill=1;entryX=0.5;entryY=0;entryDx=0;entryDy=0;" edge="1" parent="WIyWlLk6GJQsqaUBKTNV-1" source="Fh5ID8DqyuNmly4tTI_g-26" target="WIyWlLk6GJQsqaUBKTNV-6">
          <mxGeometry relative="1" as="geometry">
            <mxPoint x="220" y="450" as="targetPoint" />
            <Array as="points">
              <mxPoint x="788" y="380" />
              <mxPoint x="220" y="380" />
            </Array>
          </mxGeometry>
        </mxCell>
        <mxCell id="Fh5ID8DqyuNmly4tTI_g-26" value="&lt;font style=&quot;font-size: 20px&quot;&gt;Retrait/Ajout demandé&lt;/font&gt;" style="rounded=1;whiteSpace=wrap;html=1;fontSize=12;glass=0;strokeWidth=1;shadow=0;align=center;aspect=fixed;" parent="WIyWlLk6GJQsqaUBKTNV-1" vertex="1">
          <mxGeometry x="710" y="35.81999999999999" width="157" height="48.37" as="geometry" />
        </mxCell>
        <mxCell id="Fh5ID8DqyuNmly4tTI_g-49" value="&lt;font style=&quot;font-size: 20px&quot;&gt;Oui&lt;/font&gt;" style="rounded=1;whiteSpace=wrap;html=1;" parent="WIyWlLk6GJQsqaUBKTNV-1" vertex="1">
          <mxGeometry x="520" y="40" width="100" height="40" as="geometry" />
        </mxCell>
        <mxCell id="G-hIVbg5v9CWW5Yy8Wli-13" value="" style="edgeStyle=orthogonalEdgeStyle;rounded=0;orthogonalLoop=1;jettySize=auto;html=1;" parent="WIyWlLk6GJQsqaUBKTNV-1" source="G-hIVbg5v9CWW5Yy8Wli-2" edge="1">
          <mxGeometry relative="1" as="geometry">
            <mxPoint x="220" y="1190" as="targetPoint" />
          </mxGeometry>
        </mxCell>
        <mxCell id="uQ-XWgEHN9rOL8nD1H7O-12" value="" style="edgeStyle=orthogonalEdgeStyle;rounded=0;orthogonalLoop=1;jettySize=auto;html=1;dashed=1;startArrow=none;startFill=0;endArrow=none;endFill=0;strokeWidth=1;dashPattern=1 1;entryX=0.5;entryY=0;entryDx=0;entryDy=0;" edge="1" parent="WIyWlLk6GJQsqaUBKTNV-1" source="G-hIVbg5v9CWW5Yy8Wli-2" target="MHTNPu9FD_tJbpRzddWY-18">
          <mxGeometry relative="1" as="geometry">
            <mxPoint x="470" y="1114" as="targetPoint" />
          </mxGeometry>
        </mxCell>
        <mxCell id="G-hIVbg5v9CWW5Yy8Wli-2" value="&lt;font style=&quot;font-size: 20px&quot;&gt;Commandée validée&lt;/font&gt;" style="rounded=1;whiteSpace=wrap;html=1;direction=north;fillColor=#f5f5f5;strokeColor=#666666;fontColor=#333333;aspect=fixed;" parent="WIyWlLk6GJQsqaUBKTNV-1" vertex="1">
          <mxGeometry x="143.5" y="1080" width="154" height="64.26" as="geometry" />
        </mxCell>
        <mxCell id="G-hIVbg5v9CWW5Yy8Wli-9" value="&lt;font style=&quot;font-size: 20px&quot;&gt;A la livraison&lt;/font&gt;" style="rhombus;whiteSpace=wrap;html=1;aspect=fixed;" parent="WIyWlLk6GJQsqaUBKTNV-1" vertex="1">
          <mxGeometry x="-59" y="889.95" width="137" height="123.3" as="geometry" />
        </mxCell>
        <mxCell id="G-hIVbg5v9CWW5Yy8Wli-20" value="&lt;font color=&quot;#ff0000&quot; style=&quot;font-size: 15px&quot;&gt;Limite d&#39;annulation et/ou de modification de la commande&lt;br&gt;&lt;/font&gt;" style="text;html=1;strokeColor=none;fillColor=none;align=center;verticalAlign=middle;whiteSpace=wrap;rounded=0;fontStyle=2;dashed=1;" parent="WIyWlLk6GJQsqaUBKTNV-1" vertex="1">
          <mxGeometry x="860" y="1169" width="340" height="50" as="geometry" />
        </mxCell>
        <mxCell id="P_ejqXxA3MmKmbAG34VU-2" value="" style="edgeStyle=orthogonalEdgeStyle;rounded=0;orthogonalLoop=1;jettySize=auto;html=1;" parent="WIyWlLk6GJQsqaUBKTNV-1" source="P_ejqXxA3MmKmbAG34VU-1" target="Fh5ID8DqyuNmly4tTI_g-0" edge="1">
          <mxGeometry relative="1" as="geometry" />
        </mxCell>
        <mxCell id="P_ejqXxA3MmKmbAG34VU-1" value="" style="ellipse;whiteSpace=wrap;html=1;aspect=fixed;fillColor=#dae8fc;gradientColor=#7ea6e0;strokeColor=#6c8ebf;" parent="WIyWlLk6GJQsqaUBKTNV-1" vertex="1">
          <mxGeometry x="200" y="-120" width="40" height="40" as="geometry" />
        </mxCell>
        <mxCell id="P_ejqXxA3MmKmbAG34VU-3" value="" style="ellipse;whiteSpace=wrap;html=1;aspect=fixed;fillColor=#dae8fc;gradientColor=#7ea6e0;strokeColor=#6c8ebf;" parent="WIyWlLk6GJQsqaUBKTNV-1" vertex="1">
          <mxGeometry x="810" y="1540" width="40" height="40" as="geometry" />
        </mxCell>
        <mxCell id="P_ejqXxA3MmKmbAG34VU-4" value="" style="shape=flexArrow;endArrow=classic;html=1;fillColor=#cce5ff;strokeColor=#36393d;" parent="WIyWlLk6GJQsqaUBKTNV-1" edge="1">
          <mxGeometry width="50" height="50" relative="1" as="geometry">
            <mxPoint x="827" y="1190" as="sourcePoint" />
            <mxPoint x="827" y="1270" as="targetPoint" />
          </mxGeometry>
        </mxCell>
        <mxCell id="P_ejqXxA3MmKmbAG34VU-5" value="&lt;font style=&quot;font-size: 15px&quot;&gt;Commande en attente de préparation&lt;/font&gt;" style="text;html=1;align=center;verticalAlign=middle;resizable=0;points=[];labelBackgroundColor=#ffffff;rotation=0;fontStyle=1" parent="P_ejqXxA3MmKmbAG34VU-4" vertex="1" connectable="0">
          <mxGeometry x="-0.7303" y="4" relative="1" as="geometry">
            <mxPoint x="179" y="-70" as="offset" />
          </mxGeometry>
        </mxCell>
        <mxCell id="P_ejqXxA3MmKmbAG34VU-11" value="" style="shape=flexArrow;endArrow=classic;html=1;fillColor=#f5f5f5;strokeColor=#666666;" parent="WIyWlLk6GJQsqaUBKTNV-1" edge="1">
          <mxGeometry width="50" height="50" relative="1" as="geometry">
            <mxPoint x="825.57" y="1084.26" as="sourcePoint" />
            <mxPoint x="825.57" y="1184.26" as="targetPoint" />
          </mxGeometry>
        </mxCell>
        <mxCell id="P_ejqXxA3MmKmbAG34VU-12" value="&lt;font style=&quot;font-size: 15px&quot;&gt;Commande en préparation&lt;/font&gt;" style="text;html=1;align=center;verticalAlign=middle;resizable=0;points=[];labelBackgroundColor=#ffffff;rotation=0;fontColor=#3399FF;fontStyle=1" parent="P_ejqXxA3MmKmbAG34VU-11" vertex="1" connectable="0">
          <mxGeometry x="-0.7303" y="4" relative="1" as="geometry">
            <mxPoint x="130.43" y="132.88" as="offset" />
          </mxGeometry>
        </mxCell>
        <mxCell id="P_ejqXxA3MmKmbAG34VU-13" value="" style="shape=flexArrow;endArrow=classic;html=1;fillColor=#ffcccc;strokeColor=#36393d;" parent="WIyWlLk6GJQsqaUBKTNV-1" edge="1">
          <mxGeometry width="50" height="50" relative="1" as="geometry">
            <mxPoint x="829.29" y="1270" as="sourcePoint" />
            <mxPoint x="829.29" y="1369" as="targetPoint" />
          </mxGeometry>
        </mxCell>
        <mxCell id="P_ejqXxA3MmKmbAG34VU-15" value="&lt;font style=&quot;font-size: 15px&quot;&gt;Commande en attente de livraison&lt;/font&gt;" style="text;html=1;align=center;verticalAlign=middle;resizable=0;points=[];labelBackgroundColor=#ffffff;rotation=0;fontColor=#FF99CC;fontStyle=1" parent="P_ejqXxA3MmKmbAG34VU-13" vertex="1" connectable="0">
          <mxGeometry x="0.0933" y="10" relative="1" as="geometry">
            <mxPoint x="163" y="-16" as="offset" />
          </mxGeometry>
        </mxCell>
        <mxCell id="P_ejqXxA3MmKmbAG34VU-18" value="" style="shape=flexArrow;endArrow=classic;html=1;fillColor=#ffe6cc;strokeColor=#d79b00;" parent="WIyWlLk6GJQsqaUBKTNV-1" edge="1">
          <mxGeometry width="50" height="50" relative="1" as="geometry">
            <mxPoint x="829.29" y="1370" as="sourcePoint" />
            <mxPoint x="829" y="1450" as="targetPoint" />
          </mxGeometry>
        </mxCell>
        <mxCell id="P_ejqXxA3MmKmbAG34VU-19" value="&lt;font style=&quot;font-size: 15px&quot;&gt;Commande en livraison&lt;/font&gt;" style="text;html=1;align=center;verticalAlign=middle;resizable=0;points=[];labelBackgroundColor=#ffffff;rotation=0;fontColor=#FF8000;fontStyle=1" parent="P_ejqXxA3MmKmbAG34VU-18" vertex="1" connectable="0">
          <mxGeometry x="0.0933" y="10" relative="1" as="geometry">
            <mxPoint x="124" y="-15.33" as="offset" />
          </mxGeometry>
        </mxCell>
        <mxCell id="SvVdULVF1Hvvb6DCQOAH-8" value="" style="shape=flexArrow;endArrow=classic;html=1;fillColor=#d5e8d4;strokeColor=#82b366;" parent="WIyWlLk6GJQsqaUBKTNV-1" edge="1">
          <mxGeometry width="50" height="50" relative="1" as="geometry">
            <mxPoint x="827.29" y="1450" as="sourcePoint" />
            <mxPoint x="827" y="1540" as="targetPoint" />
          </mxGeometry>
        </mxCell>
        <mxCell id="SvVdULVF1Hvvb6DCQOAH-9" value="&lt;font style=&quot;font-size: 15px&quot;&gt;Commande livrée&lt;/font&gt;" style="text;html=1;align=center;verticalAlign=middle;resizable=0;points=[];labelBackgroundColor=#ffffff;rotation=0;fontColor=#67AB9F;fontStyle=1" parent="SvVdULVF1Hvvb6DCQOAH-8" vertex="1" connectable="0">
          <mxGeometry x="0.0933" y="10" relative="1" as="geometry">
            <mxPoint x="104" y="-15.33" as="offset" />
          </mxGeometry>
        </mxCell>
        <mxCell id="SvVdULVF1Hvvb6DCQOAH-13" value="&lt;font color=&quot;#000000&quot; style=&quot;font-size: 28px&quot;&gt;&lt;b&gt;&lt;br&gt;&lt;/b&gt;&lt;/font&gt;" style="text;html=1;strokeColor=none;fillColor=none;align=center;verticalAlign=middle;whiteSpace=wrap;rounded=0;fontColor=#FF99CC;" parent="WIyWlLk6GJQsqaUBKTNV-1" vertex="1">
          <mxGeometry x="170" y="-330" width="590" height="110" as="geometry" />
        </mxCell>
        <mxCell id="MHTNPu9FD_tJbpRzddWY-6" value="" style="endArrow=classic;html=1;exitX=0.5;exitY=1;exitDx=0;exitDy=0;" parent="WIyWlLk6GJQsqaUBKTNV-1" edge="1">
          <mxGeometry width="50" height="50" relative="1" as="geometry">
            <mxPoint x="570" y="320" as="sourcePoint" />
            <mxPoint x="570" y="380" as="targetPoint" />
          </mxGeometry>
        </mxCell>
        <mxCell id="MHTNPu9FD_tJbpRzddWY-7" value="&lt;font style=&quot;font-size: 20px&quot;&gt;Non&lt;/font&gt;" style="rounded=1;whiteSpace=wrap;html=1;" parent="WIyWlLk6GJQsqaUBKTNV-1" vertex="1">
          <mxGeometry x="520" y="280" width="100" height="40" as="geometry" />
        </mxCell>
        <mxCell id="MHTNPu9FD_tJbpRzddWY-15" value="" style="endArrow=none;html=1;entryX=0;entryY=0.5;entryDx=0;entryDy=0;exitX=1;exitY=0.5;exitDx=0;exitDy=0;dashed=1;dashPattern=1 1;" parent="WIyWlLk6GJQsqaUBKTNV-1" source="MHTNPu9FD_tJbpRzddWY-13" target="SvVdULVF1Hvvb6DCQOAH-16" edge="1">
          <mxGeometry width="50" height="50" relative="1" as="geometry">
            <mxPoint x="520" y="580" as="sourcePoint" />
            <mxPoint x="450" y="590" as="targetPoint" />
          </mxGeometry>
        </mxCell>
        <mxCell id="MHTNPu9FD_tJbpRzddWY-18" value="&lt;i&gt;&lt;font style=&quot;font-size: 15px&quot;&gt;Génération du QR Code (n° de commande)&lt;/font&gt;&lt;/i&gt;" style="rounded=1;whiteSpace=wrap;html=1;direction=north;fillColor=#F5F5F5;strokeColor=#666666;dashed=1;dashPattern=1 2;" parent="WIyWlLk6GJQsqaUBKTNV-1" vertex="1">
          <mxGeometry x="486" y="1082.13" width="280" height="60" as="geometry" />
        </mxCell>
        <mxCell id="Ly4D3T_GI__T_LjPky5A-0" value="" style="endArrow=none;dashed=1;html=1;exitX=1;exitY=0.5;exitDx=0;exitDy=0;entryX=0;entryY=0.5;entryDx=0;entryDy=0;" parent="WIyWlLk6GJQsqaUBKTNV-1" source="WIyWlLk6GJQsqaUBKTNV-6" target="Ly4D3T_GI__T_LjPky5A-1" edge="1">
          <mxGeometry width="50" height="50" relative="1" as="geometry">
            <mxPoint x="470" y="540" as="sourcePoint" />
            <mxPoint x="610" y="484" as="targetPoint" />
          </mxGeometry>
        </mxCell>
        <mxCell id="Ly4D3T_GI__T_LjPky5A-3" value="" style="edgeStyle=orthogonalEdgeStyle;rounded=0;orthogonalLoop=1;jettySize=auto;html=1;" parent="WIyWlLk6GJQsqaUBKTNV-1" source="Ly4D3T_GI__T_LjPky5A-1" target="Ly4D3T_GI__T_LjPky5A-2" edge="1">
          <mxGeometry relative="1" as="geometry" />
        </mxCell>
        <mxCell id="Ly4D3T_GI__T_LjPky5A-5" value="" style="edgeStyle=orthogonalEdgeStyle;rounded=0;orthogonalLoop=1;jettySize=auto;html=1;startArrow=none;startFill=0;entryX=0.5;entryY=0;entryDx=0;entryDy=0;" parent="WIyWlLk6GJQsqaUBKTNV-1" source="Ly4D3T_GI__T_LjPky5A-1" target="Ly4D3T_GI__T_LjPky5A-6" edge="1">
          <mxGeometry relative="1" as="geometry" />
        </mxCell>
        <mxCell id="Ly4D3T_GI__T_LjPky5A-1" value="&lt;font color=&quot;#000000&quot; size=&quot;1&quot;&gt;&lt;i style=&quot;font-size: 15px&quot;&gt;Envoi d&#39;un message avec un lien URL permettant la modification/annulation de la commande&lt;/i&gt;&lt;/font&gt;" style="rounded=1;whiteSpace=wrap;html=1;fontColor=#FF99CC;dashed=1;dashPattern=1 2;aspect=fixed;" parent="WIyWlLk6GJQsqaUBKTNV-1" vertex="1">
          <mxGeometry x="610" y="478.35" width="205" height="72.24" as="geometry" />
        </mxCell>
        <mxCell id="Ly4D3T_GI__T_LjPky5A-11" value="" style="edgeStyle=orthogonalEdgeStyle;rounded=0;orthogonalLoop=1;jettySize=auto;html=1;startArrow=none;startFill=0;endArrow=classic;endFill=1;" parent="WIyWlLk6GJQsqaUBKTNV-1" source="Ly4D3T_GI__T_LjPky5A-6" target="Ly4D3T_GI__T_LjPky5A-10" edge="1">
          <mxGeometry relative="1" as="geometry" />
        </mxCell>
        <mxCell id="Ly4D3T_GI__T_LjPky5A-13" value="" style="edgeStyle=orthogonalEdgeStyle;rounded=0;orthogonalLoop=1;jettySize=auto;html=1;startArrow=none;startFill=0;endArrow=classic;endFill=1;" parent="WIyWlLk6GJQsqaUBKTNV-1" source="Ly4D3T_GI__T_LjPky5A-6" target="Ly4D3T_GI__T_LjPky5A-12" edge="1">
          <mxGeometry relative="1" as="geometry" />
        </mxCell>
        <mxCell id="Ly4D3T_GI__T_LjPky5A-6" value="&lt;font color=&quot;#000000&quot; style=&quot;font-size: 15px&quot;&gt;Annulation :&lt;br&gt;Afficher le panier et demander confirmation&lt;br&gt;&lt;/font&gt;" style="rounded=1;whiteSpace=wrap;html=1;fontColor=#FF99CC;dashed=1;dashPattern=1 2;aspect=fixed;" parent="WIyWlLk6GJQsqaUBKTNV-1" vertex="1">
          <mxGeometry x="780" y="610" width="206" height="72.6" as="geometry" />
        </mxCell>
        <mxCell id="uQ-XWgEHN9rOL8nD1H7O-7" value="" style="edgeStyle=orthogonalEdgeStyle;rounded=0;orthogonalLoop=1;jettySize=auto;html=1;startArrow=none;startFill=0;endArrow=none;endFill=0;" edge="1" parent="WIyWlLk6GJQsqaUBKTNV-1" source="Ly4D3T_GI__T_LjPky5A-12">
          <mxGeometry relative="1" as="geometry">
            <mxPoint x="220" y="890" as="targetPoint" />
            <Array as="points">
              <mxPoint x="1083" y="860" />
              <mxPoint x="220" y="860" />
            </Array>
          </mxGeometry>
        </mxCell>
        <mxCell id="Ly4D3T_GI__T_LjPky5A-12" value="&lt;font color=&quot;#000000&quot; style=&quot;font-size: 15px&quot;&gt;Pas de confirmation :&lt;br&gt;&lt;br&gt;Message &quot;commande confirmée&quot; =&amp;gt; retour au règlement&lt;br&gt;&lt;/font&gt;" style="rounded=1;whiteSpace=wrap;html=1;fontColor=#FF99CC;dashed=1;dashPattern=1 2;aspect=fixed;" parent="WIyWlLk6GJQsqaUBKTNV-1" vertex="1">
          <mxGeometry x="970" y="750.0000000000001" width="225" height="79.25" as="geometry" />
        </mxCell>
        <mxCell id="Ly4D3T_GI__T_LjPky5A-10" value="&lt;font color=&quot;#000000&quot; style=&quot;font-size: 15px&quot;&gt;Confirmation :&lt;br&gt;&lt;br&gt;Commande annulée =&amp;gt; retour au &lt;/font&gt;&lt;font style=&quot;font-size: 15px&quot;&gt;&lt;font color=&quot;#99004d&quot;&gt;catalogue&lt;/font&gt;&lt;br&gt;&lt;/font&gt;" style="rounded=1;whiteSpace=wrap;html=1;fontColor=#FF99CC;dashed=1;dashPattern=1 2;aspect=fixed;" parent="WIyWlLk6GJQsqaUBKTNV-1" vertex="1">
          <mxGeometry x="590" y="750.0000000000001" width="206" height="72.6" as="geometry" />
        </mxCell>
        <mxCell id="Ly4D3T_GI__T_LjPky5A-2" value="&lt;font color=&quot;#000000&quot; style=&quot;font-size: 15px&quot;&gt;Modification:&lt;br&gt;Retour au panier&lt;br&gt;&lt;/font&gt;" style="rounded=1;whiteSpace=wrap;html=1;fontColor=#FF99CC;dashed=1;dashPattern=1 2;aspect=fixed;" parent="WIyWlLk6GJQsqaUBKTNV-1" vertex="1">
          <mxGeometry x="440" y="610" width="206" height="72.6" as="geometry" />
        </mxCell>
        <mxCell id="WIyWlLk6GJQsqaUBKTNV-10" value="&lt;font style=&quot;font-size: 20px&quot;&gt;Règlement&lt;/font&gt;" style="rhombus;whiteSpace=wrap;html=1;shadow=0;fontFamily=Helvetica;fontSize=12;align=center;strokeWidth=1;spacing=6;spacingTop=-4;aspect=fixed;" parent="WIyWlLk6GJQsqaUBKTNV-1" vertex="1">
          <mxGeometry x="156" y="900" width="129" height="103.2" as="geometry" />
        </mxCell>
        <mxCell id="SvVdULVF1Hvvb6DCQOAH-16" value="&lt;i style=&quot;color: rgb(0 , 0 , 0) ; font-size: 15px&quot;&gt;Le règlement à proprement parlé interviendra au stade &quot;&lt;/i&gt;&lt;i style=&quot;font-size: 15px&quot;&gt;&lt;font color=&quot;#3399ff&quot;&gt;Commande en préparation&lt;/font&gt;&lt;/i&gt;&lt;i style=&quot;color: rgb(0 , 0 , 0) ; font-size: 15px&quot;&gt;&quot;&lt;/i&gt;" style="rounded=1;whiteSpace=wrap;html=1;fontColor=#FF99CC;dashed=1;dashPattern=1 2;aspect=fixed;" parent="WIyWlLk6GJQsqaUBKTNV-1" vertex="1">
          <mxGeometry x="568" y="917.7499999999999" width="198" height="69.8" as="geometry" />
        </mxCell>
        <mxCell id="uQ-XWgEHN9rOL8nD1H7O-8" value="" style="endArrow=none;html=1;dashed=1;fillColor=#f8cecc;strokeColor=#b85450;strokeWidth=2;" edge="1" parent="WIyWlLk6GJQsqaUBKTNV-1">
          <mxGeometry width="50" height="50" relative="1" as="geometry">
            <mxPoint x="840" y="1190" as="sourcePoint" />
            <mxPoint x="-40" y="1190" as="targetPoint" />
          </mxGeometry>
        </mxCell>
      </root>
    </mxGraphModel>
  </diagram>
</mxfile>
